NotoSansSymbols-Bold.ufo
<glyph name="enclosingcirclecomb" format="2">
  <unicode hex="20DD"/>
  <note>
uni20DD
</note>
  <guideline x="-691" y="358" angle="180"/>
  <outline>
    <contour>
      <point x="0" y="-292" type="curve" smooth="yes"/>
      <point x="359" y="-292"/>
      <point x="650" y="-1"/>
      <point x="650" y="358" type="curve" smooth="yes"/>
      <point x="650" y="717"/>
      <point x="359" y="1008"/>
      <point x="0" y="1008" type="curve" smooth="yes"/>
      <point x="-359" y="1008"/>
      <point x="-650" y="717"/>
      <point x="-650" y="358" type="curve" smooth="yes"/>
      <point x="-650" y="-1"/>
      <point x="-359" y="-292"/>
    </contour>
    <contour>
      <point x="0" y="-138" type="curve" smooth="yes"/>
      <point x="-274" y="-138"/>
      <point x="-496" y="84"/>
      <point x="-496" y="358" type="curve" smooth="yes"/>
      <point x="-496" y="632"/>
      <point x="-274" y="854"/>
      <point x="0" y="854" type="curve" smooth="yes"/>
      <point x="274" y="854"/>
      <point x="496" y="632"/>
      <point x="496" y="358" type="curve" smooth="yes"/>
      <point x="496" y="84"/>
      <point x="277" y="-138"/>
    </contour>
  </outline>
</glyph>
<glyph name="enclosingupwardpointingtrianglecomb" format="2">
  <unicode hex="20E4"/>
  <note>
uni20E4
</note>
  <guideline y="-131"/>
  <guideline x="-427" y="609" angle="59.9849"/>
  <outline>
    <contour>
      <point x="-963" y="-193" type="line"/>
      <point x="963" y="-193" type="line"/>
      <point x="0" y="1471" type="line"/>
    </contour>
    <contour>
      <point x="-710" y="-47" type="line"/>
      <point x="0" y="1182" type="line"/>
      <point x="710" y="-47" type="line"/>
    </contour>
  </outline>
</glyph>
<glyph name="leftCeiling" format="2">
  <advance width="404"/>
  <unicode hex="2308"/>
  <note>
uni2308
</note>
  <outline>
    <contour>
      <point x="30" y="-110" type="line"/>
      <point x="165" y="-110" type="line"/>
      <point x="165" y="696" type="line"/>
      <point x="373" y="696" type="line"/>
      <point x="373" y="824" type="line"/>
      <point x="30" y="824" type="line"/>
    </contour>
  </outline>
</glyph>
<glyph name="verticalcircle-dentistry" format="2">
  <advance width="755"/>
  <unicode hex="23C0"/>
  <outline>
    <contour>
      <point x="310" y="0" type="line"/>
      <point x="445" y="0" type="line"/>
      <point x="445" y="98" type="line"/>
      <point x="557" y="127"/>
      <point x="640" y="230"/>
      <point x="640" y="352" type="curve" smooth="yes"/>
      <point x="640" y="474"/>
      <point x="557" y="576"/>
      <point x="445" y="606" type="curve"/>
      <point x="445" y="714" type="line"/>
      <point x="310" y="714" type="line"/>
      <point x="310" y="606" type="line"/>
      <point x="197" y="576"/>
      <point x="114" y="474"/>
      <point x="114" y="352" type="curve" smooth="yes"/>
      <point x="114" y="230"/>
      <point x="197" y="127"/>
      <point x="310" y="98" type="curve"/>
    </contour>
    <contour>
      <point x="310" y="245" type="line"/>
      <point x="274" y="267"/>
      <point x="250" y="307"/>
      <point x="250" y="352" type="curve" smooth="yes"/>
      <point x="250" y="397"/>
      <point x="274" y="437"/>
      <point x="310" y="459" type="curve"/>
    </contour>
    <contour>
      <point x="445" y="245" type="curve"/>
      <point x="445" y="459" type="line"/>
      <point x="480" y="437"/>
      <point x="504" y="396"/>
      <point x="504" y="352" type="curve" smooth="yes"/>
      <point x="504" y="307"/>
      <point x="480" y="268"/>
    </contour>
  </outline>
</glyph>
<glyph name="downandhorizontalcircle-dentistry" format="2">
  <advance width="755"/>
  <unicode hex="23C1"/>
  <outline>
    <contour>
      <point x="310" y="0" type="line"/>
      <point x="445" y="0" type="line"/>
      <point x="445" y="63" type="line"/>
      <point x="557" y="93"/>
      <point x="640" y="196"/>
      <point x="640" y="318" type="curve" smooth="yes"/>
      <point x="640" y="439"/>
      <point x="557" y="542"/>
      <point x="445" y="572" type="curve"/>
      <point x="445" y="580" type="line"/>
      <point x="707" y="580" type="line"/>
      <point x="707" y="714" type="line"/>
      <point x="48" y="714" type="line"/>
      <point x="48" y="580" type="line"/>
      <point x="310" y="580" type="line"/>
      <point x="310" y="572" type="line"/>
      <point x="197" y="542"/>
      <point x="114" y="439"/>
      <point x="114" y="318" type="curve" smooth="yes"/>
      <point x="114" y="196"/>
      <point x="197" y="93"/>
      <point x="310" y="63" type="curve"/>
    </contour>
    <contour>
      <point x="310" y="210" type="line"/>
      <point x="274" y="233"/>
      <point x="250" y="273"/>
      <point x="250" y="318" type="curve" smooth="yes"/>
      <point x="250" y="363"/>
      <point x="274" y="402"/>
      <point x="310" y="425" type="curve"/>
    </contour>
    <contour>
      <point x="445" y="210" type="curve"/>
      <point x="445" y="425" type="line"/>
      <point x="480" y="402"/>
      <point x="504" y="362"/>
      <point x="504" y="318" type="curve" smooth="yes"/>
      <point x="504" y="273"/>
      <point x="480" y="233"/>
    </contour>
  </outline>
</glyph>
<glyph name="upandhorizontalcircle-dentistry" format="2">
  <advance width="755"/>
  <unicode hex="23C2"/>
  <outline>
    <contour>
      <point x="48" y="0" type="line"/>
      <point x="707" y="0" type="line"/>
      <point x="707" y="134" type="line"/>
      <point x="445" y="134" type="line"/>
      <point x="445" y="142" type="line"/>
      <point x="557" y="172"/>
      <point x="640" y="274"/>
      <point x="640" y="396" type="curve" smooth="yes"/>
      <point x="640" y="518"/>
      <point x="557" y="621"/>
      <point x="445" y="650" type="curve"/>
      <point x="445" y="714" type="line"/>
      <point x="310" y="714" type="line"/>
      <point x="310" y="650" type="line"/>
      <point x="197" y="621"/>
      <point x="114" y="518"/>
      <point x="114" y="396" type="curve" smooth="yes"/>
      <point x="114" y="274"/>
      <point x="197" y="172"/>
      <point x="310" y="142" type="curve"/>
      <point x="310" y="134" type="line"/>
      <point x="48" y="134" type="line"/>
    </contour>
    <contour>
      <point x="310" y="289" type="line"/>
      <point x="274" y="312"/>
      <point x="250" y="351"/>
      <point x="250" y="396" type="curve" smooth="yes"/>
      <point x="250" y="441"/>
      <point x="274" y="481"/>
      <point x="310" y="503" type="curve"/>
    </contour>
    <contour>
      <point x="445" y="289" type="curve"/>
      <point x="445" y="503" type="line"/>
      <point x="480" y="480"/>
      <point x="504" y="441"/>
      <point x="504" y="396" type="curve" smooth="yes"/>
      <point x="504" y="352"/>
      <point x="480" y="312"/>
    </contour>
  </outline>
</glyph>
<glyph name="verticaltriangle-dentistry" format="2">
  <advance width="755"/>
  <unicode hex="23C3"/>
  <outline>
    <contour>
      <point x="309" y="0" type="line"/>
      <point x="444" y="0" type="line"/>
      <point x="444" y="127" type="line"/>
      <point x="676" y="127" type="line"/>
      <point x="676" y="217" type="line"/>
      <point x="444" y="556" type="line"/>
      <point x="444" y="714" type="line"/>
      <point x="309" y="714" type="line"/>
      <point x="309" y="557" type="line"/>
      <point x="79" y="218" type="line"/>
      <point x="79" y="127" type="line"/>
      <point x="309" y="127" type="line"/>
    </contour>
    <contour>
      <point x="241" y="256" type="line"/>
      <point x="309" y="358" type="line"/>
      <point x="309" y="256" type="line"/>
    </contour>
    <contour>
      <point x="444" y="256" type="line"/>
      <point x="444" y="359" type="line"/>
      <point x="512" y="256" type="line"/>
    </contour>
  </outline>
</glyph>
<glyph name="downandhorizontaltriangle-dentistry" format="2">
  <advance width="755"/>
  <unicode hex="23C4"/>
  <outline>
    <contour>
      <point x="310" y="0" type="line"/>
      <point x="445" y="0" type="line"/>
      <point x="445" y="127" type="line"/>
      <point x="677" y="127" type="line"/>
      <point x="677" y="217" type="line"/>
      <point x="445" y="556" type="line"/>
      <point x="445" y="580" type="line"/>
      <point x="707" y="580" type="line"/>
      <point x="707" y="714" type="line"/>
      <point x="48" y="714" type="line"/>
      <point x="48" y="580" type="line"/>
      <point x="310" y="580" type="line"/>
      <point x="310" y="557" type="line"/>
      <point x="80" y="218" type="line"/>
      <point x="80" y="127" type="line"/>
      <point x="310" y="127" type="line"/>
    </contour>
    <contour>
      <point x="242" y="256" type="line"/>
      <point x="310" y="354" type="line"/>
      <point x="310" y="256" type="line"/>
    </contour>
    <contour>
      <point x="445" y="256" type="line"/>
      <point x="445" y="354" type="line"/>
      <point x="513" y="256" type="line"/>
    </contour>
  </outline>
</glyph>
<glyph name="upandhorizontaltriangle-dentistry" format="2">
  <advance width="755"/>
  <unicode hex="23C5"/>
  <outline>
    <contour>
      <point x="48" y="0" type="line"/>
      <point x="707" y="0" type="line"/>
      <point x="707" y="134" type="line"/>
      <point x="445" y="134" type="line"/>
      <point x="445" y="190" type="line"/>
      <point x="677" y="190" type="line"/>
      <point x="677" y="281" type="line"/>
      <point x="445" y="620" type="line"/>
      <point x="445" y="714" type="line"/>
      <point x="310" y="714" type="line"/>
      <point x="310" y="621" type="line"/>
      <point x="80" y="282" type="line"/>
      <point x="80" y="190" type="line"/>
      <point x="310" y="190" type="line"/>
      <point x="310" y="134" type="line"/>
      <point x="48" y="134" type="line"/>
    </contour>
    <contour>
      <point x="242" y="320" type="line"/>
      <point x="310" y="417" type="line"/>
      <point x="310" y="320" type="line"/>
    </contour>
    <contour>
      <point x="445" y="320" type="line"/>
      <point x="445" y="417" type="line"/>
      <point x="513" y="320" type="line"/>
    </contour>
  </outline>
</glyph>
<glyph name="upandhorizontalwave-dentistry" format="2">
  <advance width="755"/>
  <unicode hex="23C8"/>
  <outline>
    <contour>
      <point x="48" y="0" type="line"/>
      <point x="707" y="0" type="line"/>
      <point x="707" y="134" type="line"/>
      <point x="445" y="134" type="line"/>
      <point x="445" y="272" type="line"/>
      <point x="478" y="265"/>
      <point x="505" y="261"/>
      <point x="524" y="261" type="curve" smooth="yes"/>
      <point x="592" y="261"/>
      <point x="647" y="284"/>
      <point x="707" y="334" type="curve"/>
      <point x="707" y="493" type="line"/>
      <point x="625" y="427"/>
      <point x="566" y="395"/>
      <point x="530" y="395" type="curve" smooth="yes"/>
      <point x="511" y="395"/>
      <point x="483" y="400"/>
      <point x="445" y="410" type="curve"/>
      <point x="445" y="714" type="line"/>
      <point x="310" y="714" type="line"/>
      <point x="310" y="444" type="line"/>
      <point x="281" y="450"/>
      <point x="250" y="454"/>
      <point x="233" y="454" type="curve" smooth="yes"/>
      <point x="161" y="454"/>
      <point x="105" y="431"/>
      <point x="48" y="382" type="curve"/>
      <point x="48" y="225" type="line"/>
      <point x="130" y="289"/>
      <point x="189" y="321"/>
      <point x="226" y="321" type="curve" smooth="yes"/>
      <point x="244" y="321"/>
      <point x="272" y="316"/>
      <point x="310" y="308" type="curve"/>
      <point x="310" y="134" type="line"/>
      <point x="48" y="134" type="line"/>
    </contour>
  </outline>
</glyph>
<glyph name="downandhorizontal-dentistry" format="2">
  <advance width="755"/>
  <unicode hex="23C9"/>
  <outline>
    <contour>
      <point x="310" y="0" type="line"/>
      <point x="445" y="0" type="line"/>
      <point x="445" y="580" type="line"/>
      <point x="707" y="580" type="line"/>
      <point x="707" y="714" type="line"/>
      <point x="48" y="714" type="line"/>
      <point x="48" y="580" type="line"/>
      <point x="310" y="580" type="line"/>
    </contour>
  </outline>
</glyph>
<glyph name="upandhorizontal-dentistry" format="2">
  <advance width="755"/>
  <unicode hex="23CA"/>
  <outline>
    <contour>
      <point x="48" y="0" type="line"/>
      <point x="707" y="0" type="line"/>
      <point x="707" y="134" type="line"/>
      <point x="445" y="134" type="line"/>
      <point x="445" y="714" type="line"/>
      <point x="310" y="714" type="line"/>
      <point x="310" y="134" type="line"/>
      <point x="48" y="134" type="line"/>
    </contour>
  </outline>
</glyph>
<glyph name="verticalandtopleft-dentistry" format="2">
  <advance width="755"/>
  <unicode hex="23CB"/>
  <outline>
    <contour>
      <point x="284" y="0" type="line"/>
      <point x="419" y="0" type="line"/>
      <point x="419" y="714" type="line"/>
      <point x="22" y="714" type="line"/>
      <point x="22" y="580" type="line"/>
      <point x="284" y="580" type="line"/>
    </contour>
  </outline>
</glyph>
<glyph name="metricaltwoshortsjoined" format="2">
  <advance width="808"/>
  <unicode hex="23D6"/>
  <note>
uni23D6
</note>
  <outline>
    <contour>
      <point x="596" y="166" type="curve" smooth="yes"/>
      <point x="706" y="166"/>
      <point x="750" y="257"/>
      <point x="761" y="381" type="curve"/>
      <point x="633" y="381" type="line"/>
      <point x="627" y="332"/>
      <point x="627" y="297"/>
      <point x="596" y="297" type="curve" smooth="yes"/>
      <point x="561" y="297"/>
      <point x="563" y="322"/>
      <point x="558" y="381" type="curve"/>
      <point x="430" y="381" type="line"/>
      <point x="440" y="260"/>
      <point x="483" y="166"/>
    </contour>
    <contour>
      <point x="213" y="166" type="curve" smooth="yes"/>
      <point x="327" y="166"/>
      <point x="369" y="260"/>
      <point x="379" y="381" type="curve"/>
      <point x="250" y="381" type="line"/>
      <point x="245" y="332"/>
      <point x="245" y="297"/>
      <point x="213" y="297" type="curve" smooth="yes"/>
      <point x="178" y="297"/>
      <point x="181" y="324"/>
      <point x="176" y="381" type="curve"/>
      <point x="47" y="381" type="line"/>
      <point x="58" y="260"/>
      <point x="101" y="166"/>
    </contour>
  </outline>
</glyph>
<glyph name="orthodoxCross" format="2">
  <advance width="483"/>
  <unicode hex="2626"/>
  <note>
uni2626
</note>
  <outline>
    <contour>
      <point x="168" y="0" type="line"/>
      <point x="315" y="0" type="line"/>
      <point x="315" y="67" type="line"/>
      <point x="361" y="36" type="line"/>
      <point x="441" y="152" type="line"/>
      <point x="315" y="239" type="line"/>
      <point x="315" y="375" type="line"/>
      <point x="449" y="375" type="line"/>
      <point x="449" y="515" type="line"/>
      <point x="315" y="515" type="line"/>
      <point x="315" y="557" type="line"/>
      <point x="374" y="557" type="line"/>
      <point x="374" y="668" type="line"/>
      <point x="315" y="668" type="line"/>
      <point x="315" y="752" type="line"/>
      <point x="168" y="752" type="line"/>
      <point x="168" y="668" type="line"/>
      <point x="110" y="668" type="line"/>
      <point x="110" y="557" type="line"/>
      <point x="168" y="557" type="line"/>
      <point x="168" y="515" type="line"/>
      <point x="35" y="515" type="line"/>
      <point x="35" y="375" type="line"/>
      <point x="168" y="375" type="line"/>
      <point x="168" y="341" type="line"/>
      <point x="123" y="371" type="line"/>
      <point x="43" y="256" type="line"/>
      <point x="168" y="169" type="line"/>
    </contour>
  </outline>
</glyph>
<glyph name="u1f190" format="2">
  <advance width="1000"/>
  <unicode hex="1F190"/>
  <note>
uni1F190
</note>
  <outline>
    <contour>
      <point x="286" y="188" type="line"/>
      <point x="395" y="188" type="line" smooth="yes"/>
      <point x="502" y="188"/>
      <point x="572" y="247"/>
      <point x="572" y="364" type="curve" smooth="yes"/>
      <point x="572" y="468"/>
      <point x="511" y="525"/>
      <point x="402" y="525" type="curve" smooth="yes"/>
      <point x="286" y="525" type="line"/>
    </contour>
    <contour>
      <point x="377" y="263" type="line"/>
      <point x="377" y="452" type="line"/>
      <point x="403" y="452" type="line" smooth="yes"/>
      <point x="453" y="452"/>
      <point x="478" y="422"/>
      <point x="478" y="361" type="curve" smooth="yes"/>
      <point x="478" y="294"/>
      <point x="453" y="263"/>
      <point x="397" y="263" type="curve" smooth="yes"/>
    </contour>
    <contour>
      <point x="599" y="146" type="curve" smooth="yes"/>
      <point x="669" y="146"/>
      <point x="719" y="183"/>
      <point x="719" y="285" type="curve" smooth="yes"/>
      <point x="719" y="525" type="line"/>
      <point x="627" y="525" type="line"/>
      <point x="627" y="277" type="line" smooth="yes"/>
      <point x="627" y="236"/>
      <point x="618" y="217"/>
      <point x="585" y="217" type="curve" smooth="yes"/>
      <point x="572" y="217"/>
      <point x="562" y="220"/>
      <point x="551" y="222" type="curve"/>
      <point x="551" y="151" type="line"/>
      <point x="563" y="148"/>
      <point x="578" y="146"/>
    </contour>
    <component base="_boxComp"/>
  </outline>
</glyph>
<glyph name="crucible5-alchemical" format="2">
  <advance width="820"/>
  <unicode hex="1F769"/>
  <note>
uni1F769
</note>
  <guideline x="354" y="162" angle="0"/>
  <outline>
    <contour>
      <point x="258" y="0" type="line"/>
      <point x="562" y="0" type="line"/>
      <point x="782" y="714" type="line"/>
      <point x="38" y="714" type="line"/>
    </contour>
    <contour>
      <point x="241" y="507" type="line"/>
      <point x="344" y="428" type="line"/>
      <point x="344" y="153" type="line"/>
      <point x="350" y="153" type="line"/>
    </contour>
    <contour>
      <point x="580" y="507" type="line"/>
      <point x="471" y="153" type="line"/>
      <point x="477" y="153" type="line"/>
      <point x="477" y="429" type="line"/>
    </contour>
    <contour>
      <point x="411" y="533" type="line"/>
      <point x="334" y="583" type="line"/>
      <point x="486" y="583" type="line"/>
    </contour>
  </outline>
</glyph>
<glyph name="E.001" format="2">
  <advance width="526"/>
  <anchor x="263" y="714" name="top"/>
  <outline>
    <contour>
      <point x="51" y="0" type="line"/>
      <point x="475" y="0" type="line"/>
      <point x="475" y="157" type="line"/>
      <point x="244" y="157" type="line"/>
      <point x="244" y="292" type="line"/>
      <point x="458" y="292" type="line"/>
      <point x="458" y="447" type="line"/>
      <point x="244" y="447" type="line"/>
      <point x="244" y="559" type="line"/>
      <point x="475" y="559" type="line"/>
      <point x="475" y="714" type="line"/>
      <point x="51" y="714" type="line"/>
    </contour>
  </outline>
</glyph>
<glyph name="X.001" format="2">
  <advance width="820"/>
  <anchor x="410" y="714" name="top"/>
  <outline>
    <contour>
      <point x="51" y="0" type="line"/>
      <point x="269" y="0" type="line"/>
      <point x="407" y="223" type="line"/>
      <point x="546" y="0" type="line"/>
      <point x="769" y="0" type="line"/>
      <point x="526" y="350" type="line"/>
      <point x="752" y="714" type="line"/>
      <point x="532" y="714" type="line"/>
      <point x="408" y="493" type="line"/>
      <point x="279" y="714" type="line"/>
      <point x="65" y="714" type="line"/>
      <point x="288" y="365" type="line"/>
    </contour>
  </outline>
</glyph>
<glyph name="Y.001" format="2">
  <advance width="766"/>
  <anchor x="383" y="714" name="top"/>
  <outline>
    <contour>
      <point x="286" y="0" type="line"/>
      <point x="480" y="0" type="line"/>
      <point x="480" y="279" type="line"/>
      <point x="715" y="714" type="line"/>
      <point x="506" y="714" type="line"/>
      <point x="383" y="449" type="line"/>
      <point x="261" y="714" type="line"/>
      <point x="51" y="714" type="line"/>
      <point x="286" y="273" type="line"/>
    </contour>
  </outline>
</glyph>
<glyph name="_boxComp" format="2">
  <advance width="1000"/>
  <outline>
    <contour>
      <point x="100" y="-43" type="line"/>
      <point x="900" y="-43" type="line"/>
      <point x="900" y="757" type="line"/>
      <point x="100" y="757" type="line"/>
    </contour>
    <contour>
      <point x="210" y="67" type="line"/>
      <point x="210" y="647" type="line"/>
      <point x="790" y="647" type="line"/>
      <point x="790" y="67" type="line"/>
    </contour>
  </outline>
</glyph>
<glyph name="seven.001" format="2">
  <advance width="617"/>
  <anchor x="308" y="714" name="top"/>
  <outline>
    <contour>
      <point x="115" y="0" type="line"/>
      <point x="315" y="0" type="line"/>
      <point x="566" y="600" type="line"/>
      <point x="566" y="714" type="line"/>
      <point x="51" y="714" type="line"/>
      <point x="51" y="554" type="line"/>
      <point x="360" y="554" type="line"/>
    </contour>
  </outline>
</glyph>
<glyph name="z.001" format="2">
  <advance width="560"/>
  <anchor x="280" y="714" name="top"/>
  <outline>
    <contour>
      <point x="51" y="0" type="line"/>
      <point x="509" y="0" type="line"/>
      <point x="509" y="146" type="line"/>
      <point x="279" y="146" type="line"/>
      <point x="498" y="435" type="line"/>
      <point x="498" y="553" type="line"/>
      <point x="64" y="553" type="line"/>
      <point x="64" y="407" type="line"/>
      <point x="280" y="407" type="line"/>
      <point x="51" y="109" type="line"/>
    </contour>
  </outline>
</glyph>
